<svg xmlns="http://www.w3.org/2000/svg" xmlns:xlink="http://www.w3.org/1999/xlink" width="77" height="37" fill="none" xmlns:v="https://vecta.io/nano"><rect x=".932" y=".426" width="36.531" height="36.48" rx="6" fill="#03c0cc" fill-opacity=".07"/><rect x="1.182" y=".676" width="36.031" height="35.98" rx="5.75" stroke="#007080" stroke-opacity=".3" stroke-width=".5"/><rect x="40.236" y=".426" width="36.531" height="36.48" rx="6" fill="#03c0cc" fill-opacity=".15"/><rect x="40.486" y=".676" width="36.031" height="35.98" rx="5.75" stroke="#007080" stroke-opacity=".31" stroke-width=".5"/><path d="M48.649 18.758a9.83 9.83 0 0 1 9.827-9.827 9.83 9.83 0 0 1 9.827 9.827c-3.142 0-7.439 3.707-11.085 8.532-.426 0 .412 1.268 0 1.215a9.83 9.83 0 0 1-8.569-9.747z" fill="url(#B)"/><mask id="A" mask-type="alpha" maskUnits="userSpaceOnUse" x="48" y="8" width="21" height="21"><path d="M48.649 18.758a9.83 9.83 0 0 1 9.827-9.827h9.827v19.654h-9.827a9.83 9.83 0 0 1-9.827-9.827h0z" fill="url(#B)"/></mask><g mask="url(#A)"><use xlink:href="#D" fill-rule="evenodd" fill="#000" fill-opacity=".3"/><use xlink:href="#D" fill-rule="evenodd" fill="url(#C)"/></g><path fill-rule="evenodd" d="M10.121 7.311h18.202c1.535 0 2.785 1.161 2.785 2.6v22.647l-2.92-2.399-1.644-1.414-1.739-1.502.72 2.335H10.121c-1.535 0-2.785-1.161-2.785-2.6V9.911c0-1.439 1.25-2.6 2.785-2.6zm12.062 15.464l.896 1.023c3.002-.088 4.157-1.919 4.157-1.919 0-4.065-1.956-7.36-1.956-7.36-1.956-1.363-3.817-1.325-3.817-1.325l-.19.202c2.309.656 3.382 1.603 3.382 1.603a11.68 11.68 0 0 0-4.089-1.212 12.36 12.36 0 0 0-2.744.025c-.071 0-.132.01-.201.02l-.03.005c-.475.038-1.63.202-3.083.795l-.801.366s1.127-.997 3.572-1.654l-.136-.152s-1.861-.038-3.817 1.326c0 0-1.956 3.295-1.956 7.36 0 0 1.141 1.83 4.143 1.919l.91-1.048c-1.725-.48-2.377-1.49-2.377-1.49a4.82 4.82 0 0 0 .38.215c.014.013.027.025.054.038.02.013.041.022.061.032l.061.032a8.26 8.26 0 0 0 .992.429 12.06 12.06 0 0 0 1.997.543c1.019.177 2.214.24 3.518.013.638-.101 1.29-.278 1.97-.543.475-.164 1.005-.404 1.562-.745 0 0-.679 1.035-2.459 1.502zm-6.805-3.471a1.39 1.39 0 0 1 1.386-1.401c.774 0 1.399.631 1.386 1.401a1.39 1.39 0 0 1-1.386 1.401 1.4 1.4 0 0 1-1.386-1.401zm4.958 0a1.39 1.39 0 0 1 1.386-1.401 1.39 1.39 0 0 1 1.386 1.401 1.39 1.39 0 0 1-1.386 1.401 1.4 1.4 0 0 1-1.386-1.401z" fill="#004953"/><defs><linearGradient id="B" x1="58.476" y1="8.931" x2="58.476" y2="28.585" gradientUnits="userSpaceOnUse"><stop stop-color="#066d66"/><stop offset="1" stop-color="#004945"/></linearGradient><linearGradient id="C" x1="68.646" y1="15.512" x2="55.048" y2="28.584" gradientUnits="userSpaceOnUse"><stop stop-color="#3ce888"/><stop offset="1" stop-color="#21bdd3"/></linearGradient><path id="D" d="M57.318 15.229h11.086V26.27h-3.286v-5.432l-8.908 8.908-2.324-2.324 8.908-8.908h-5.476v-3.286z"/></defs></svg>