<svg width="24" height="28" viewBox="0 0 24 28" fill="none" xmlns="http://www.w3.org/2000/svg">
<path d="M21.0223 10.4014H19.3839V7.94536C19.3839 3.75002 16.1071 0.292548 12.0316 0.282007C7.95616 0.271466 4.63844 3.6815 4.63844 7.87158V10.4014H3.00006C1.64327 10.4014 0.54248 11.5346 0.54248 12.9313V24.7373C0.54248 26.134 1.64327 27.2671 3.00006 27.2671H21.0223C22.3791 27.2671 23.4798 26.134 23.4798 24.7373V12.9313C23.4798 11.5346 22.3791 10.4014 21.0223 10.4014ZM7.09601 7.87158C7.09601 5.08346 9.30271 2.81186 12.0112 2.81186C14.7196 2.81186 16.9263 5.08346 16.9263 7.87158V10.4014H7.09601V7.87158ZM21.0223 24.7373H3.00006V12.9313H21.0223V24.7373Z" fill="#6B6B6B"/>
</svg>
